<svg width="305" height="112" viewBox="0 0 305 112" fill="none" xmlns="http://www.w3.org/2000/svg">
<path d="M133.371 1.22852H152.295L163.291 41.5645L174.425 1.22852H193.228L173.813 63.5971H152.502L133.371 1.22852Z" fill="#262223"/>
<path d="M31.807 0C14.2705 0 0 14.5304 0 32.3864C0 50.2423 14.2705 64.7727 31.807 64.7727C49.3435 64.7727 63.614 50.2423 63.614 32.3864C63.6226 14.5304 49.3521 0 31.807 0ZM31.7639 19.6986C39.0457 19.6986 43.9404 24.7965 43.9404 32.3951C43.9404 39.8709 38.9336 45.0917 31.7639 45.0917C24.6459 45.0917 19.6822 39.8709 19.6822 32.3951C19.6822 24.9193 24.6459 19.6986 31.7639 19.6986Z" fill="#262223"/>
<path d="M86.6748 46.2237V1.22852H68.4316V63.5532H103.72V46.2237H86.6748Z" fill="#262223"/>
<path d="M128.753 1.22852H110.51V63.5532H128.753V1.22852Z" fill="#262223"/>
<path d="M239.306 18.0052V1.22852H197.848V63.5532H239.306V46.7765H216.082V39.8008H233.11V24.8492H216.082V18.0052H239.306Z" fill="#262223"/>
<path d="M287.315 41.0117C287.642 40.7924 287.978 40.573 288.297 40.3273C290.865 38.3969 292.994 35.8875 294.493 32.9919C295.553 31.1844 296.337 29.0171 296.734 26.3409C296.751 26.3146 296.751 26.2883 296.751 26.2619C296.88 25.3055 296.941 24.3403 296.941 23.3488C296.941 23.2611 296.932 23.1821 296.932 23.0944C296.932 23.0329 296.941 22.9628 296.941 22.9013C296.941 11.4156 288.159 2.01823 277.06 1.28995C276.819 1.2724 276.569 1.26363 276.319 1.25485C276.104 1.2373 275.88 1.2373 275.664 1.2373C275.578 1.2373 275.483 1.2373 275.406 1.24608C275.371 1.24608 275.345 1.24608 275.311 1.24608C275.19 1.24608 275.078 1.24608 274.957 1.24608C274.785 1.2373 274.621 1.2373 274.449 1.2373H246.192V63.562H264.436V45.6622V45.3287V43.3457L268.658 43.3633C268.986 43.4773 269.313 43.5826 269.649 43.6879L273.251 50.5144L280.214 63.562H299.672L287.315 41.0117ZM264.427 29.0785V18.4001L272.157 18.3913C275.25 18.3913 279.163 19.5758 279.163 23.2523V23.9279C279.163 27.5167 276.991 29.0785 271.433 29.0785H264.427Z" fill="#262223"/>
<path d="M82.1849 111.568C89.7288 111.568 94.1978 108.418 94.1978 102.077C94.1978 91.0318 78.0849 94.7545 78.0849 90.1727C78.0849 88.6591 79.8069 87.7182 81.8569 87.7182C84.6039 87.7182 86.6539 88.9045 87.1459 91.4L93.3778 90.1318C93.3778 85.4273 88.9908 81.8682 82.1029 81.8682C75.7889 81.8682 71.4839 84.8954 71.4839 90.05C71.3609 101.668 87.5969 96.9636 87.5969 102.364C87.5969 104.205 85.7109 105.718 82.7589 105.718C78.6589 105.718 76.7729 103.509 76.6909 100.073L70.3359 101.259C70.3359 107.15 74.7229 111.568 82.1849 111.568Z" fill="#262223"/>
<path d="M107.818 111.036H114.419V100.318H119.052C124.915 100.318 130.04 98.6 130.04 91.2363C130.04 84.0363 124.915 82.4 119.052 82.4H107.818V111.036ZM114.419 94.2227V88.4954H118.519C121.594 88.4954 123.685 88.9454 123.685 91.3182C123.685 93.6909 121.881 94.2227 118.519 94.2227H114.419Z" fill="#262223"/>
<path d="M157.76 111.036H164.484L153.865 82.4H147.592L136.973 111.036H143.697L145.542 105.923H155.915L157.76 111.036ZM147.674 100.073L150.749 91.5636L153.824 100.073H147.674Z" fill="#262223"/>
<path d="M187.45 111.527C193.969 111.527 198.561 107.968 199.873 101.873L193.518 100.4C193.067 102.814 191.427 105.227 187.45 105.227C182.735 105.227 180.849 101.218 180.849 96.6773C180.849 92.1773 182.735 88.2091 187.45 88.2091C191.263 88.2091 192.698 90.3363 193.436 92.6682L199.832 91.2773C198.356 85.2636 193.682 81.9091 187.45 81.9091C179.25 81.9091 174.248 87.6363 174.248 96.6773C174.248 105.759 179.25 111.527 187.45 111.527Z" fill="#262223"/>
<path d="M212.96 111.036H233.173V104.695H219.561V99.6636H232.722V93.3227H219.561V88.7409H233.173V82.4H212.96V111.036Z" fill="#262223"/>
</svg>
